<?xml version="1.0" encoding="UTF-8"?>
<svg id="Layer_2" data-name="Layer 2" xmlns="http://www.w3.org/2000/svg" viewBox="0 0 927.6 257.26">
  <defs>
    <style>
      .cls-1 {
        fill: #6c10d8;
        stroke-width: 0px;
      }
    </style>
  </defs>
  <g id="_Слой_1" data-name="Слой 1">
    <g>
      <path class="cls-1" d="M205.27,121.13c0-39.47,28.62-67.84,68.34-67.84s68.58,28.37,68.58,67.84-28.86,67.84-68.58,67.84-68.34-28.62-68.34-67.84ZM307.41,120.64c0-21.96-13.57-37.25-33.8-37.25s-33.8,15.29-33.8,37.25,13.81,37.74,33.8,37.74,33.8-15.54,33.8-37.74Z"/>
      <path class="cls-1" d="M434.95,188.97c-17.76,0-33.05-7.15-39.22-17.76h-.74c.24,1.73.49,4.19.49,11.1v43.28h-34.29V57.24h31.82v5.92c0,5.43-.24,8.14-.49,10.86h.74c8.14-12.58,23.93-20.72,43.17-20.72,35.77,0,61.67,27.88,61.67,67.84s-26.88,67.84-63.15,67.84ZM394.25,120.89c0,22.2,14.3,37.5,34.54,37.5s34.78-15.29,34.78-37.5-14.55-37.5-34.78-37.5-34.54,15.29-34.54,37.5Z"/>
      <path class="cls-1" d="M572.85,53.29c19.49,0,34.54,8.39,41.2,20.23h.99c-.25-1.97-.49-4.44-.49-11.35v-4.93h31.58v127.79h-31.58v-5.92c0-5.67.24-9.13.49-11.84h-.99c-7.4,13.32-23.19,21.71-42.68,21.71-36.51,0-62.17-27.88-62.17-67.84s27.14-67.84,63.65-67.84ZM613.31,120.64c0-21.96-14.56-37.25-34.79-37.25s-34.54,15.29-34.54,37.25,14.55,37.74,34.54,37.74,34.79-15.54,34.79-37.74Z"/>
      <path class="cls-1" d="M728.76,53.29c17.02,0,32.56,6.66,38.98,17.52h.98c-.24-1.73-.49-4.19-.49-11.1V0h34.05v185.03h-31.58v-5.67c0-5.43.24-9.13.49-11.59h-.99c-8.14,13.57-24.18,21.22-42.93,21.22-36.26,0-61.92-27.88-61.92-67.84s26.65-67.84,63.41-67.84ZM769.47,120.64c0-21.96-14.56-37.25-34.79-37.25s-34.54,15.29-34.54,37.25,14.55,37.5,34.54,37.5,34.79-15.29,34.79-37.5Z"/>
      <path class="cls-1" d="M822.01,57.24h105.59l-56.74,97.69h53.04v30.1h-105.83l57.72-98.19h-53.78v-29.6Z"/>
      <rect class="cls-1" x="326.62" y="225.59" width="34.46" height="31.67"/>
      <rect class="cls-1" x="148.05" y="91.09" width="34.54" height="94.13"/>
      <polygon class="cls-1" points="108.56 56.55 74.02 56.55 0 56.55 0 87.95 0 91.09 0 185.22 34.54 185.22 34.54 91.09 74.02 91.09 74.02 185.22 108.56 185.22 108.56 91.09 148.05 91.09 148.05 56.55 108.56 56.55"/>
    </g>
  </g>
</svg>