<?xml version="1.0" standalone="no"?>
<!DOCTYPE svg PUBLIC "-//W3C//DTD SVG 20010904//EN"
 "http://www.w3.org/TR/2001/REC-SVG-20010904/DTD/svg10.dtd">
<svg version="1.0" xmlns="http://www.w3.org/2000/svg"
 viewBox="70 200 450 180"
 preserveAspectRatio="xMidYMid meet">
<g transform="translate(0.000000,600.000000) scale(0.100000,-0.100000)"
fill="#000000" stroke="none">
<path d="M718 3460 c-25 -6 -37 -45 -19 -63 6 -6 11 -18 11 -27 0 -8 11 -24
25 -34 13 -10 23 -22 20 -26 -2 -4 11 -22 30 -40 l34 -33 241 2 c239 1 328 -7
314 -31 -4 -6 -3 -8 3 -5 6 4 23 -5 37 -18 15 -14 25 -25 22 -25 -3 0 2 -16
10 -35 8 -20 12 -40 9 -45 -4 -6 -3 -10 2 -10 21 0 2 -103 -29 -161 -37 -67
-65 -74 -291 -74 -122 0 -201 4 -205 10 -4 6 -5 76 -4 158 2 103 0 147 -8 147
-6 0 -8 5 -4 12 4 7 3 8 -4 4 -7 -4 -12 -4 -12 1 0 11 -155 6 -177 -5 -17 -9
-18 -29 -18 -267 0 -239 2 -258 19 -271 15 -11 81 -13 340 -11 l321 3 71 35
c74 37 154 110 154 139 0 6 5 8 10 5 9 -5 12 8 9 31 0 4 3 10 8 13 5 3 18 35
28 71 19 62 20 80 12 247 -1 17 -5 29 -9 27 -3 -2 -14 17 -24 43 -10 26 -27
56 -37 66 -10 10 -15 23 -11 29 4 6 3 8 -3 5 -6 -4 -24 8 -41 26 -46 48 -53
52 -117 76 -32 12 -62 24 -67 27 -12 7 -621 10 -650 4z m738 -70 c118 -61 190
-176 201 -325 13 -171 -69 -318 -217 -389 l-65 -31 -322 -3 -323 -3 0 255 0
256 85 0 85 0 -170 0 -170 223 0 c212 0 224 1 262 23 159 90 131 378 -42
426 -22 6 -141 11 -283 11 l-245 0 -44 65 c-25 36 -51 71 -58 76 -7 6 -11 14
-9 18 2 3 157 4 344 1 l339 -5 69 -35z"/>
<path d="M1133 2783 c9 -2 23 -2 30 0 6 3 -1 5 -18 5 -16 0 -22 -2 -12 -5z"/>
<path d="M2776 3455 c6 -14 4 -16 -6 -10 -8 5 -11 4 -7 -2 7 -11 -20 -28 -36
-24 -5 1 -6 -3 -3 -8 3 -4 -15 -26 -41 -47 -26 -22 -72 -62 -103 -90 -30 -28
-63 -54 -72 -57 -10 -4 -18 -12 -18 -18 0 -18 -61 -69 -73 -62 -6 4 -7 1 -2
-6 8 -14 -30 -46 -55 -46 -8 -1 -14 -7 -12 -14 1 -7 -10 -22 -25 -34 -26 -21
-41 -22 -35 -4 1 5 -2 6 -7 2 -6 -3 -22 8 -37 24 -15 17 -35 33 -45 36 -11 4
-19 13 -19 21 0 8 -11 19 -25 26 -13 6 -23 14 -21 17 2 3 -2 12 -10 19 -8 7
-14 10 -14 7 0 -6 -18 11 -137 124 -35 33 -63 57 -63 53 0 -4 -6 2 -14 13 -24
35 -101 84 -116 75 -8 -5 -17 -7 -20 -5 -12 7 -2 -807 9 -818 6 -6 46 -12 89
-13 119 -2 117 -5 117 199 0 93 4 171 8 174 5 3 21 -8 36 -23 15 -16 59 -56
98 -89 39 -33 77 -70 84 -82 6 -12 16 -20 21 -17 4 3 8 1 8 -4 0 -6 14 -19 32
-30 37 -24 51 -18 110 41 21 20 38 34 38 31 0 -4 28 22 63 57 81 83 127 120
137 114 5 -3 9 -83 9 -177 1 -142 4 -173 16 -182 9 -6 50 -11 92 -10 117 1
110 -21 112 374 0 183 3 336 7 341 3 5 0 9 -6 9 -7 0 -11 16 -9 44 3 40 -16
85 -29 71 -3 -3 -11 0 -19 7 -11 9 -12 7 -7 -7z m-748 -232 c130 -120 245
-224 255 -232 15 -12 24 -6 84 51 151 144 422 388 432 388 8 0 11 -119 11
-395 l0 -395 -85 0 -85 0 0 193 c0 193 5 241 21 231 16 -9 10 3 -8 17 -9 8
-14 9 -10 3 4 -7 -39 -54 -106 -114 -61 -57 -142 -132 -179 -167 -48 -46 -69
-60 -75 -51 -4 7 -64 65 -133 128 -69 63 -143 131 -165 152 l-40 37 3 -214 3
-215 -85 0 -86 0 0 400 c0 220 2 400 5 400 3 0 112 -98 243 -217z"/>
<path d="M2316 2958 c3 -5 10 -6 15 -3 13 9 11 12 -6 12 -8 0 -12 -4 -9 -9z"/>
<path d="M2954 3458 c-3 -5 -9 -6 -13 -4 -20 13 -26 -87 -26 -436 0 -441 -9
-409 111 -404 112 4 109 -2 108 216 -1 202 2 233 20 209 6 -8 30 -27 54 -43
23 -16 42 -32 42 -36 0 -4 22 -23 50 -42 27 -19 46 -38 42 -42 -4 -4 -1 -6 7
-4 8 2 19 -6 25 -18 6 -11 17 -19 25 -16 9 3 11 0 6 -9 -5 -8 -4 -10 0 -6 5 4
21 -4 35 -17 14 -14 54 -49 90 -77 36 -29 70 -58 77 -66 38 -47 121 -63 168
-34 19 12 20 26 20 407 0 316 -3 395 -13 399 -7 3 -10 9 -7 15 3 5 0 11 -7 11
-32 3 -153 -3 -161 -8 -4 -2 -15 1 -24 9 -15 12 -15 11 -5 -8 6 -12 9 -24 6
-26 -3 -3 -5 -105 -4 -227 l0 -222 -35 27 c-19 14 -35 30 -35 35 0 5 -4 8 -9
7 -5 -2 -17 5 -28 14 -47 45 -88 78 -96 78 -5 0 -32 23 -60 52 -28 28 -47 45
-42 37 7 -13 -32 19 -81 66 -40 38 -74 65 -74 58 0 -3 -9 2 -20 12 -11 10 -17
22 -13 28 4 6 1 7 -6 2 -8 -4 -24 5 -43 24 -17 17 -35 31 -40 31 -5 0 -7 4 -4
8 2 4 -4 8 -15 8 -11 0 -23 -4 -25 -8z m248 -205 c117 -96 256 -210 308 -253
l95 -77 -3 256 -3 256 86 -3 85 -3 0 -395 0 -394 -46 0 c-43 0 -52 5 -187 118
-78 65 -194 161 -257 213 -63 53 -128 107 -145 121 l-30 26 3 -239 3 -239 -85
0 -86 0 0 399 0 398 24 -4 c13 -3 120 -84 238 -180z"/>
<path d="M3373 3065 c0 -8 4 -12 9 -9 5 3 6 10 3 15 -9 13 -12 11 -12 -6z"/>
<path d="M3433 3021 c0 -11 5 -18 9 -15 4 3 5 11 1 19 -7 21 -12 19 -10 -4z"/>
<path d="M3485 2960 c-3 -6 1 -7 9 -4 18 7 21 14 7 14 -6 0 -13 -4 -16 -10z"/>
<path d="M3952 3462 c-13 -2 -21 -9 -19 -15 3 -9 88 -13 308 -17 l304 -5 53
-28 c112 -59 182 -161 202 -293 25 -165 -43 -329 -171 -410 -77 -48 -122 -54
-421 -54 l-278 0 0 85 0 85 283 0 c274 0 283 1 322 23 117 66 143 263 49 367
-61 67 -83 71 -387 68 l-267 -3 0 88 c0 63 -3 87 -12 87 -18 0 -22 -160 -5
-184 12 -16 37 -18 293 -18 262 -1 324 -6 324 -30 0 -4 6 -8 13 -8 18 0 60
-77 51 -92 -4 -6 -3 -8 4 -4 7 4 10 -16 8 -66 -2 -40 -5 -80 -8 -89 -6 -25
-45 -69 -53 -61 -5 4 -5 2 -1 -5 4 -7 -2 -17 -14 -23 -11 -6 -20 -7 -20 -3 0
4 -5 1 -10 -7 -8 -13 -52 -15 -288 -16 -261 -1 -281 -3 -299 -21 -14 -14 -17
-26 -12 -52 4 -19 6 -39 4 -45 -7 -21 -13 -87 -8 -82 3 3 11 -1 18 -8 11 -10
77 -12 312 -10 311 2 340 6 410 51 43 27 113 95 113 110 0 7 4 13 8 13 5 0 17
18 27 40 10 22 21 37 25 35 5 -3 6 4 3 15 -3 11 -1 26 5 33 13 15 13 259 0
251 -4 -3 -8 6 -8 20 0 14 -5 26 -11 26 -5 0 -8 4 -5 9 7 11 -72 131 -90 138
-8 3 -11 9 -8 14 3 5 2 9 -3 8 -14 -4 -63 24 -57 32 3 5 -3 6 -12 2 -12 -4
-15 -3 -10 5 5 8 -1 12 -17 12 -13 0 -27 3 -31 7 -4 4 -19 9 -34 11 -15 2 -29
6 -32 10 -5 7 -503 10 -548 4z"/>
<path d="M4715 3370 c3 -5 8 -10 11 -10 2 0 4 5 4 10 0 6 -5 10 -11 10 -5 0
-7 -4 -4 -10z"/>
<path d="M5102 3318 c-7 -7 -12 -43 -12 -90 l0 -78 -42 -2 c-24 -1 -58 -2 -76
-2 -41 -1 -52 -18 -57 -95 -4 -43 -1 -64 10 -74 8 -8 12 -16 10 -18 -2 -2 31
-4 73 -4 l77 0 1 -73 c1 -53 6 -78 17 -90 18 -17 107 -23 107 -7 0 6 4 4 9 -3
6 -10 12 -9 29 5 18 15 22 31 24 93 l3 75 72 0 c40 0 73 4 73 8 0 5 5 12 1
6 -4 8 -3 4 4 -3 6 -3 13 2 16 15 9 13 107 -4 134 -14 25 -21 27 -74 26 -32
-1 -64 2 -71 6 -7 5 -13 37 -15 79 -1 40 -8 79 -14 87 -16 18 -140 20 -158 2z
m143 -107 l0 -91 88 0 87 0 0 -67 0 -68 -87 3 -88 4 3 -94 4 -93 -69 0 -69 0
4 94 4 94 -91 -5 -91 -4 0 68 0 68 91 0 90 0 -1 88 c-1 48 -1 89 -1 92 1 3 29
4 63 4 l63 -2 0 -91z"/>
<path d="M4666 2997 c3 -10 9 -15 12 -12 3 3 0 11 -7 18 -10 9 -11 8 -5 -6z"/>
<path d="M1314 2402 c-18 -12 -26 -94 -11 -122 10 -20 21 -25 52 -26 49 0 74
21 81 68 8 49 -25 88 -75 88 -20 0 -41 -4 -47 -8z m86 -32 c39 -39 18 -87 -43
-97 l-37 -6 0 62 0 61 30 0 c17 0 39 -9 50 -20z"/>
<path d="M1340 2330 c0 -37 2 -41 21 -38 12 2 27 11 33 21 14 22 -3 51 -33 55
-19 3 -21 -1 -21 -38z"/>
<path d="M1513 2398 c-6 -7 -11 -39 -12 -70 -2 -49 1 -58 19 -68 27 -15 96 -8
92 10 -2 8 3 10 15 6 14 -5 13 -2 -4 11 -19 16 -23 38 -12 78 1 6 -1 18 -5 28
-10 20 -78 24 -93 5z m87 -18 c0 -5 -13 -10 -30 -10 -20 0 -30 -5 -30 -15 0
-9 9 -15 25 -15 14 0 25 -4 25 -10 0 -5 -11 -10 -25 -10 -16 0 -25 -6 -25 -15
0 -10 10 -15 29 -15 16 0 31 -6 34 -13 4 -10 -5 -12 -37 -8 l-41 6 -3 58 -3
57 40 0 c23 0 41 -4 41 -10z"/>
<path d="M1697 2393 c-21 -24 -20 -113 2 -130 39 -30 110 8 96 51 -4 11 -8 34
-9 49 -2 46 -57 64 -89 30z m70 -19 c2 -7 -6 -10 -22 -7 -33 7 -32 -12 2 -29
33 -16 37 -28 20 -52 -10 -14 -21 -17 -40 -12 -15 3 -27 11 -27 16 0 6 11 8
24 4 36 -9 41 13 6 31 -32 17 -38 33 -18 53 15 15 50 12 55 -4z"/>
<path d="M1877 2399 c-13 -8 -17 -23 -17 -65 0 -63 16 -88 44 -72 13 7 21 7
26 -1 9 -15 60 -3 60 14 0 7 -9 24 -20 38 -16 21 -17 27 -6 36 8 7 16 20 19
31 6 24 -27 37 -48 20 -11 -9 -19 -9 -28 -2 -8 7 -18 7 -30 1z m23 -36 l1 -28
24 28 c13 15 30 27 36 27 7 0 1 -13 -14 -28 l-27 -28 27 -27 c37 -36 20 -48
-17 -12 l-30 29 0 -27 c0 -15 -4 -27 -10 -27 -6 0 -10 27 -10 60 0 33 4 60 10
60 6 0 10 -12 10 -27z"/>
<path d="M2191 2396 c-7 -9 -11 -38 -9 -73 3 -54 5 -58 28 -59 14 -1 34 -5 44
-9 13 -6 21 -4 24 3 2 7 8 12 13 12 6 0 8 -4 5 -8 -2 -4 4 -8 15 -8 10 0 19 4
19 9 0 4 3 6 8 4 4 -3 7 24 7 58 0 56 -2 65 -22 76 -19 10 -26 9 -41 -4 -16
-15 -21 -15 -38 -2 -24 18 -39 19 -53 1z m57 -55 l15 -45 17 44 c24 63 40 63
40 1 0 -28 0 -53 0 -56 0 -3 -3 -5 -7 -5 -4 0 -6 19 -4 43 3 48 -3 46 -21 -6
-7 -20 -17 -37 -22 -37 -6 -1 -18 18 -27 42 l-18 43 0 -47 c-1 -27 -5 -48 -11
-48 -6 0 -10 27 -10 61 0 51 3 60 17 57 9 -2 23 -22 31 -47z"/>
<path d="M2460 2400 c-8 -5 -15 -13 -15 -17 -1 -14 -30 -73 -36 -73 -4 0 -9
-7 -12 -14 -4 -10 -1 -13 8 -10 10 4 12 0 8 -15 -5 -19 -2 -21 26 -19 19 1 30
7 27 14 -3 7 3 10 15 7 10 -3 19 -9 19 -14 0 -4 12 -5 28 -2 15 3 33 6 40 6 9
0 8 6 -3 21 -8 12 -18 28 -21 36 -14 37 -17 46 -18 53 -1 9 -36 37 -45 37 -3
0 -13 -5 -21 -10z m41 -37 c6 -16 17 -41 25 -57 16 -33 9 -50 -10 -23 -16 21
-66 23 -66 2 0 -8 -4 -15 -10 -15 -5 0 -10 3 -10 7 0 17 44 113 52 113 5 0 13
-12 19 -27z"/>
<path d="M2475 2347 c-8 -19 -2 -31 13 -26 5 2 6 13 2 24 -7 19 -8 19 -15 2z"/>
<path d="M2603 2398 c-14 -19 -10 -43 6 -43 9 0 15 -14 18 -40 4 -48 26 -70
54 -52 13 8 18 19 15 32 -3 12 1 33 9 49 19 36 19 52 -1 60 -27 11 -91 6 -101
-6z m107 -18 c0 -5 -9 -10 -20 -10 -17 0 -20 -7 -20 -50 0 -27 -4 -50 -10 -50
-5 0 -10 23 -10 50 0 38 -4 50 -15 50 -8 0 -15 5 -15 10 0 6 20 10 45 10 25 0
45 -4 45 -10z"/>
<path d="M2795 2380 c-10 -20 -13 -36 -7 -48 12 -22 4 -44 -11 -35 -8 5 -8 2
0 -9 7 -8 9 -19 5 -23 -4 -5 -2 -5 5 -2 6 4 13 3 15 -2 3 -9 28 -14 61 -12 10
0 15 6 12 11 -3 6 -2 10 3 10 9 0 18 20 27 58 2 9 -2 11 -12 8 -13 -5 -14 -4
-3 9 7 8 9 15 4 16 -5 0 -21 3 -36 5 -36 6 -46 -14 -13 -26 32 -12 42 -37 22
-57 -10 -10 -24 -13 -41 -9 -36 9 -33 27 4 20 23 -5 30 -3 30 9 0 8 -11 18
-24 21 -31 8 -41 35 -21 55 12 13 21 13 45 4 17 -6 30 -8 30 -4 0 16 -26 31
-52 31 -20 0 -31 -8 -43 -30z"/>
<path d="M3322 2397 c-16 -19 -18 -113 -2 -132 16 -20 69 -19 91 1 14 13 16
21 8 41 -5 14 -8 42 -7 62 3 36 2 36 -38 39 -26 2 -45 -2 -52 -11z m83 -17 c4
-6 -7 -10 -24 -10 -21 0 -31 -5 -31 -15 0 -9 9 -15 24 -15 22 0 43 -26 31 -38
-3 -3 -5 0 -5 6 0 7 -11 12 -25 12 -16 0 -25 -6 -25 -15 0 -10 10 -15 31 -15
17 0 28 -4 24 -10 -3 -5 -22 -10 -41 -10 l-34 0 0 60 0 60 34 0 c19 0 38 -4
41 -10z"/>
<path d="M3496 2378 c-7 -18 -11 -49 -9 -68 2 -19 4 -40 5 -46 1 -6 21 -11 45
-11 57 0 73 24 38 57 -17 16 -23 31 -21 51 2 16 0 26 -4 24 -4 -3 -10 2 -14
10 -9 25 -26 17 -40 -17z m34 -38 c0 -47 2 -50 25 -50 14 0 25 -4 25 -10 0 -5
-16 -10 -35 -10 l-35 0 0 60 c0 33 4 60 10 60 6 0 10 -22 10 -50z"/>
<path d="M3673 2398 c-13 -21 -19 -124 -8 -134 14 -13 77 -16 94 -5 10 7 11
18 4 53 -7 30 -6 49 1 61 8 13 7 20 -4 27 -22 14 -77 12 -87 -2z m77 -18 c0
-5 -11 -10 -25 -10 -16 0 -25 -6 -25 -15 0 -9 9 -15 25 -15 14 0 25 -5 25 -11
0 -7 -10 -9 -25 -7 -19 4 -25 1 -25 -13 0 -14 7 -19 25 -19 14 0 25 -4 25 -10
0 -5 -16 -10 -35 -10 l-35 0 0 60 0 60 35 0 c19 0 35 -4 35 -10z"/>
<path d="M3842 2398 c-17 -17 -15 -44 4 -73 9 -14 13 -25 9 -25 -4 0 -2 -6 4
-13 6 -8 7 -18 3 -22 -4 -5 -1 -5 6 -1 6 4 12 3 12 -2 0 -6 11 -9 24 -8 13 0
22 4 20 7 -2 4 3 12 11 19 8 7 15 21 15 31 0 10 4 20 9 23 12 8 7 54 -7 68 -7
7 -17 6 -31 -4 -12 -8 -20 -17 -18 -19 1 -2 -6 4 -16 14 -21 20 -29 21 -45 5z
m39 -48 c7 -22 15 -40 19 -40 4 0 12 18 19 40 6 22 16 40 21 40 6 0 10 -3 10
-7 0 -15 -44 -113 -50 -113 -6 0 -50 103 -50 116 0 2 4 4 10 4 5 0 15 -18 21
-40z"/>
<path d="M4053 2378 c-19 -37 -19 -38 -29 -90 -6 -33 -4 -38 12 -38 11 0 28 7
38 15 15 12 22 12 27 3 4 -7 19 -13 33 -14 l26 -1 -26 24 c-28 26 -74 31 -74
8 0 -8 -6 -15 -14 -15 -11 0 -9 14 11 60 15 33 31 59 36 57 5 -1 19 -27 31
-57 24 -59 52 -83 40 -33 -4 15 -10 30 -14 33 -4 3 -11 16 -15 30 -8 27 -32
49 -52 50 -7 0 -20 -15 -30 -32z"/>
<path d="M4216 2394 c-4 -9 1 -28 10 -42 9 -13 14 -35 11 -48 -2 -14 0 -27 5
-30 4 -3 6 -10 3 -15 -5 -7 24 -7 45 1 3 2 7 2 10 2 3 0 6 20 6 45 1 31 7 49
18 55 12 7 14 13 6 29 -14 26 -104 28 -114 3z m104 -14 c0 -5 -9 -10 -20 -10
-17 0 -20 -7 -20 -50 0 -27 -4 -50 -10 -50 -5 0 -10 23 -10 50 0 38 -4 50 -15
50 -8 0 -15 5 -15 10 0 6 20 10 45 10 25 0 45 -4 45 -10z"/>
<path d="M4411 2401 c-19 -12 -25 -99 -9 -128 13 -26 62 -31 91 -9 18 14 23
36 8 36 -5 0 -4 20 1 46 8 37 7 48 -3 55 -18 11 -70 11 -88 0z m79 -21 c0 -5
-11 -10 -25 -10 -16 0 -25 -6 -25 -15 0 -9 9 -15 25 -15 14 0 25 -4 25 -10 0
-5 -11 -10 -25 -10 -16 0 -25 -6 -25 -15 0 -9 9 -15 25 -15 14 0 25 -4 25 -10
0 -5 -16 -10 -35 -10 l-35 0 0 60 0 60 35 0 c19 0 35 -4 35 -10z"/>
<path d="M4585 2401 c-3 -5 -6 -37 -7 -71 -2 -68 6 -80 58 -80 45 0 78 40 79
95 0 24 -3 41 -8 38 -4 -2 -14 3 -23 11 -17 17 -89 22 -99 7z m87 -28 c40 -36
9 -103 -49 -103 -21 0 -23 4 -23 60 0 58 1 60 27 60 14 0 35 -7 45 -17z"/>
<path d="M4615 2330 c0 -31 3 -40 17 -40 15 0 48 25 48 36 0 19 -24 44 -43 44
-20 0 -22 -5 -22 -40z"/>
<path d="M4080 2340 c-9 -17 -8 -20 9 -20 14 0 18 5 14 20 -3 11 -7 20 -9 20
-2 0 -8 -9 -14 -20z"/>
<path d="M2971 2313 c-8 -9 -15 -25 -16 -38 -2 -17 2 -22 17 -21 31 2 44 29
27 53 -12 18 -16 19 -28 6z m19 -28 c0 -8 -4 -15 -10 -15 -5 0 -10 7 -10 15 0
8 5 15 10 15 6 0 10 -7 10 -15z"/>
<path d="M4783 2313 c-26 -18 -29 -35 -8 -53 11 -9 19 -8 37 4 26 19 27 25 4
38 -9 5 -14 13 -11 19 8 12 4 11 -22 -8z m19 -28 c0 -5 -5 -11 -11 -13 -6 -2
-11 4 -11 13 0 9 5 15 11 13 6 -2 11 -8 11 -13z"/>
</g>
</svg>
